<svg width="13" height="17" viewBox="0 0 13 17" fill="none" xmlns="http://www.w3.org/2000/svg">
<path d="M6.91406 8.46875V11.7891L6.875 13.2109L7.89844 12.1719L8.57812 11.4766C8.61979 11.4349 8.66927 11.401 8.72656 11.375C8.78385 11.349 8.84115 11.3359 8.89844 11.3359C9.02344 11.3359 9.125 11.3776 9.20312 11.4609C9.28646 11.5391 9.32812 11.6406 9.32812 11.7656C9.32812 11.8438 9.3099 11.9115 9.27344 11.9688C9.24219 12.0208 9.20052 12.0729 9.14844 12.125L6.79688 14.3516C6.73438 14.4141 6.67708 14.4557 6.625 14.4766C6.57292 14.5026 6.51823 14.5156 6.46094 14.5156C6.39844 14.5156 6.34115 14.5026 6.28906 14.4766C6.23698 14.4557 6.17969 14.4141 6.11719 14.3516L3.76562 12.125C3.71354 12.0729 3.66927 12.0208 3.63281 11.9688C3.60156 11.9115 3.58594 11.8438 3.58594 11.7656C3.58594 11.6406 3.625 11.5391 3.70312 11.4609C3.78646 11.3776 3.89062 11.3359 4.01562 11.3359C4.07292 11.3359 4.13021 11.349 4.1875 11.375C4.24479 11.401 4.29427 11.4349 4.33594 11.4766L5.01562 12.1719L6.03906 13.2109L6 11.7891V8.46875C6 8.34896 6.04427 8.24479 6.13281 8.15625C6.22135 8.06771 6.33073 8.02344 6.46094 8.02344C6.58594 8.02344 6.69271 8.06771 6.78125 8.15625C6.86979 8.24479 6.91406 8.34896 6.91406 8.46875ZM2.28125 16.6484C1.52604 16.6484 0.955729 16.4557 0.570312 16.0703C0.190104 15.6901 0 15.1172 0 14.3516V2.30469C0 1.54427 0.190104 0.971354 0.570312 0.585938C0.955729 0.195312 1.52604 0 2.28125 0H6.03125C6.28125 0 6.5 0.0182292 6.6875 0.0546875C6.875 0.0911458 7.04688 0.153646 7.20312 0.242188C7.36458 0.330729 7.52865 0.460938 7.69531 0.632812L12.2812 5.27344C12.4583 5.45052 12.5911 5.61979 12.6797 5.78125C12.7734 5.9375 12.8359 6.11198 12.8672 6.30469C12.8984 6.4974 12.9141 6.73698 12.9141 7.02344V14.3516C12.9141 15.112 12.7214 15.6849 12.3359 16.0703C11.9557 16.4557 11.388 16.6484 10.6328 16.6484H2.28125ZM2.32031 15.6875H10.5859C11.0391 15.6875 11.3802 15.5703 11.6094 15.3359C11.8385 15.1068 11.9531 14.7734 11.9531 14.3359V6.98438H7.30469C6.86719 6.98438 6.53906 6.8776 6.32031 6.66406C6.10156 6.44531 5.99219 6.11458 5.99219 5.67188V0.960938H2.32812C1.875 0.960938 1.53385 1.08073 1.30469 1.32031C1.07552 1.5599 0.960938 1.89583 0.960938 2.32812V14.3359C0.960938 14.7734 1.07552 15.1068 1.30469 15.3359C1.53385 15.5703 1.8724 15.6875 2.32031 15.6875ZM7.39844 6.07031H11.7578L6.89844 1.15625V5.57031C6.89844 5.7526 6.9375 5.88281 7.01562 5.96094C7.09375 6.03385 7.22135 6.07031 7.39844 6.07031Z" fill="#8E8E93"/>
</svg>
