<svg width="24" height="24" viewBox="0 0 24 24" fill="none" xmlns="http://www.w3.org/2000/svg">
<g clip-path="url(#clip0_533_527)">
<path fill-rule="evenodd" clip-rule="evenodd" d="M1.23242 6.17676V19C1.23242 19.9114 1.97102 20.65 2.88242 20.65H17.9154C18.8268 20.65 19.5654 19.9114 19.5654 19V7.82676C19.5654 6.91536 18.8268 6.17676 17.9154 6.17676H1.23242Z" fill="#FFA300"/>
<path fill-rule="evenodd" clip-rule="evenodd" d="M4.58523 10.4401L1.82463 18.8461C1.53243 19.7353 2.19483 20.6503 3.13083 20.6503H17.9718C18.9222 20.6503 19.7652 20.0401 20.0622 19.1365L22.8228 10.7305C23.115 9.84127 22.4526 8.92627 21.5166 8.92627H6.67503C5.72463 8.92627 4.88163 9.53647 4.58463 10.4401H4.58523Z" fill="#FFC33A"/>
<path fill-rule="evenodd" clip-rule="evenodd" d="M1.23241 6.17659H10.881L8.62021 3.91579C8.25841 3.55399 7.76761 3.35059 7.25581 3.35059H2.88181C1.97041 3.35059 1.23181 4.08919 1.23181 5.00059L1.23241 6.17659Z" fill="#FFA300"/>
</g>
<defs>
<clipPath id="clip0_533_527">
<rect width="24" height="24" fill="white"/>
</clipPath>
</defs>
</svg>
