<svg width="26" height="20" viewBox="0 0 26 20" fill="none" xmlns="http://www.w3.org/2000/svg">
<path d="M17.7667 0H5.922C2.6516 0 0 2.6516 0 5.922V15.2943C0 16.1329 0.6797 16.8133 1.519 16.8133H22.1704C23.009 16.8133 23.6894 16.1336 23.6894 15.2943V5.922C23.6894 2.6509 21.0371 0 17.7667 0Z" fill="#1E6EF4"/>
<path d="M6.26779 1.04024C9.02999 1.21874 11.1195 3.63654 11.1195 6.40434V15.7843H1.71359C1.16759 15.7843 0.724487 15.3412 0.724487 14.7952V6.22584C0.724487 3.24104 3.24099 0.84424 6.26779 1.04024Z" fill="#082B9C"/>
<path d="M25.0102 9.76625C25.2979 10.1436 25.8999 9.93985 25.8999 9.46595V5.99675C25.8999 5.73915 25.6913 5.53125 25.4344 5.53125H15.3607C14.9064 5.53125 14.5382 5.89945 14.5382 6.35375C14.5382 6.80805 14.9064 7.17625 15.3607 7.17625H23.0362L25.0102 9.76625Z" fill="#0A37C7"/>
<path d="M10.2886 16.813H14.0252V18.7443C14.0252 19.0208 13.8005 19.2455 13.524 19.2455H10.7898C10.5133 19.2455 10.2886 19.0208 10.2886 18.7443V16.813Z" fill="#0A37C7"/>
<path d="M4.57874 8.00586V14.0168C4.57874 14.4347 4.72994 14.8141 4.97284 15.1172L9.13293 11.8013L4.57943 8.00656L4.57874 8.00586Z" fill="#D0D5DA"/>
<path d="M9.91618 12.4544L9.13288 11.8013L4.97278 15.1172C5.29688 15.5211 5.78828 15.785 6.34688 15.785H11.1202V12.8758C10.6995 12.8758 10.2781 12.7351 9.91618 12.4544Z" fill="#E5E9EE"/>
<path d="M9.91624 12.4541C10.2788 12.7348 10.6995 12.8755 11.1195 12.8755V12.0586C10.6988 12.0586 10.2781 11.934 9.91624 11.6841L4.57874 8.00635L9.13223 11.801L9.91553 12.4541H9.91624Z" fill="#AFB7C0"/>
<path d="M11.1195 12.0581V6.40415C11.1195 6.10805 11.0908 5.81685 11.0446 5.53125H6.3462C5.3697 5.53125 4.578 6.32295 4.578 7.29875V8.00575L9.9155 11.6836C10.2781 11.9335 10.6995 12.0581 11.1195 12.0581Z" fill="#E5E9EE"/>
</svg>
