<svg width="52" height="52" viewBox="0 0 52 52" fill="none" xmlns="http://www.w3.org/2000/svg">
<g clip-path="url(#clip0_533_703)">
<path d="M33.5027 8.02673L6.63977 34.8896L16.8277 45.0776L43.6906 18.2147L33.5027 8.02673Z" fill="#FFAA00"/>
<path fill-rule="evenodd" clip-rule="evenodd" d="M47.8973 14.01L43.6931 18.2155L33.505 8.02607L37.7092 3.82188C38.8467 2.68437 40.6901 2.68437 41.8263 3.82188L47.8973 9.89288C49.0348 11.0304 49.0348 12.8725 47.8973 14.01Z" fill="#FF9000"/>
<path fill-rule="evenodd" clip-rule="evenodd" d="M4.28356 48.4393L9.26256 47.1055L4.61246 42.4541L3.27866 47.4344C3.11486 48.0441 3.67386 48.6018 4.28356 48.4393Z" fill="#313D4C"/>
<path fill-rule="evenodd" clip-rule="evenodd" d="M4.61377 42.4539L9.26257 47.1053L16.8299 45.0773L6.64177 34.8892L4.61377 42.4539Z" fill="#FFCCA8"/>
</g>
<defs>
<clipPath id="clip0_533_703">
<rect width="52" height="52" fill="white"/>
</clipPath>
</defs>
</svg>
