<svg width="59" height="59" viewBox="0 0 59 59" fill="none" xmlns="http://www.w3.org/2000/svg">
<g clip-path="url(#clip0_533_644)">
<path d="M19.3697 28.6344C24.4456 28.6344 28.5604 24.5196 28.5604 19.4437C28.5604 14.3678 24.4456 10.2529 19.3697 10.2529C14.2938 10.2529 10.179 14.3678 10.179 19.4437C10.179 24.5196 14.2938 28.6344 19.3697 28.6344Z" fill="#8BBDFF"/>
<path d="M19.3697 31.4458C7.01807 31.4458 2.21252 39.868 2.21252 43.7857C2.21252 47.7032 12.4402 48.7461 19.3697 48.7461C26.2993 48.7461 36.5269 47.7032 36.5269 43.7857C36.5269 39.868 31.7229 31.4458 19.3697 31.4458Z" fill="#8BBDFF"/>
<path d="M39.6303 28.6344C44.7062 28.6344 48.821 24.5196 48.821 19.4437C48.821 14.3678 44.7062 10.2529 39.6303 10.2529C34.5544 10.2529 30.4396 14.3678 30.4396 19.4437C30.4396 24.5196 34.5544 28.6344 39.6303 28.6344Z" fill="#3180F3"/>
<path d="M39.6303 31.4458C27.2787 31.4458 22.4731 39.868 22.4731 43.7857C22.4731 47.7032 32.7008 48.7461 39.6303 48.7461C46.5599 48.7461 56.7875 47.7032 56.7875 43.7857C56.7875 39.868 51.9835 31.4458 39.6303 31.4458Z" fill="#3180F3"/>
</g>
<defs>
<clipPath id="clip0_533_644">
<rect width="59" height="59" fill="white"/>
</clipPath>
</defs>
</svg>
