<svg width="40" height="40" viewBox="0 0 40 40" fill="none" xmlns="http://www.w3.org/2000/svg">
<g clip-path="url(#clip0_735_605)">
<path d="M6.52704 12.7151C4.45104 8.80711 3.90904 5.56911 5.41204 4.06511C8.17204 1.30511 16.781 5.44011 24.641 13.3001C32.501 21.1601 36.635 29.7691 33.876 32.5291C31.116 35.2891 22.507 31.1541 14.648 23.2941C14.218 22.8641 13.8 22.4331 13.393 22.0001L11.085 25.7061C11.609 26.2811 12.154 26.8511 12.718 27.4161C21.746 36.4441 32.385 40.4431 36.481 36.3481C40.577 32.2531 36.577 21.6141 27.549 12.5851C18.991 4.02811 8.98804 -0.0108901 4.48004 3.07611C3.92604 3.45611 3.52204 4.01111 3.32404 4.65311C2.85604 6.16511 2.69204 9.32011 6.72704 13.6401L6.52804 12.7141L6.52704 12.7151Z" fill="#FFE28F"/>
<path d="M17.2922 37.365L13.5552 33.704C13.2912 33.445 12.9172 33.333 12.5542 33.404L7.41921 34.407C6.50621 34.585 5.78521 33.639 6.19921 32.806L8.52621 28.12C8.69021 27.789 8.68121 27.399 8.50221 27.076L5.96121 22.503C5.50921 21.69 6.18621 20.712 7.10621 20.848L12.2822 21.613C12.6472 21.667 13.0162 21.538 13.2682 21.267L16.8332 17.437C17.4672 16.756 18.6062 17.097 18.7612 18.015L19.6322 23.174C19.6942 23.538 19.9302 23.849 20.2652 24.005L25.0092 26.212C25.8522 26.604 25.8802 27.794 25.0552 28.224L20.4182 30.647C20.0912 30.818 19.8682 31.139 19.8242 31.506L19.1912 36.699C19.0782 37.622 17.9562 38.016 17.2922 37.365Z" fill="#FFC522"/>
</g>
<defs>
<clipPath id="clip0_735_605">
<rect width="40" height="40" fill="white"/>
</clipPath>
</defs>
</svg>
